<?xml version="1.0" encoding="UTF-8"?>
<!DOCTYPE svg PUBLIC "-//W3C//DTD SVG 1.1//EN" "http://www.w3.org/Graphics/SVG/1.1/DTD/svg11.dtd">
<!-- Creator: CorelDRAW -->
<svg xmlns="http://www.w3.org/2000/svg" xml:space="preserve" width="210mm" height="297mm" version="1.1" style="shape-rendering:geometricPrecision; text-rendering:geometricPrecision; image-rendering:optimizeQuality; fill-rule:evenodd; clip-rule:evenodd"
viewBox="0 0 21000 29700"
 xmlns:xlink="http://www.w3.org/1999/xlink"
 xmlns:xodm="http://www.corel.com/coreldraw/odm/2003">
 <defs>
  <style type="text/css">
   <![CDATA[
    .fil0 {fill:black;fill-rule:nonzero}
   ]]>
  </style>
 </defs>
 <g id="Capa_x0020_1">
  <metadata id="CorelCorpID_0Corel-Layer"/>
  <path class="fil0" d="M2342.25 10325.72l0 1298.69 11.08 255.33c11.08,118.38 40.71,203.47 88.82,255.32 48.12,51.78 129.47,85.08 244.18,99.9l283.05 22.15 0 88.82 -2663.99 0 0 -88.82 172.07 0c81.35,-11.08 159.09,-21.24 233.1,-30.48 74.01,-9.24 132.28,-37.04 174.82,-83.25 42.55,-46.28 69.36,-128.61 80.44,-246.99l11.14 -255.33 0 -2630.68 -11.14 -255.32c-11.08,-118.39 -38.81,-201.64 -83.25,-249.75 -44.38,-48.05 -107.31,-77.68 -188.66,-88.76 -81.41,-11.14 -151.75,-17.57 -210.94,-19.47 -59.2,-1.83 -114.65,-4.59 -166.5,-8.32l0 -88.76 2480.84 -5.57c344.14,0 623.45,14.81 838.06,44.38 214.62,29.63 389.44,88.82 524.48,177.64 135.03,88.76 242.34,198.88 321.92,330.18 79.51,131.36 119.3,284.03 119.3,457.87 0,129.53 -23.14,259.06 -69.35,388.52 -46.28,129.53 -117.47,240.51 -213.7,333 -96.16,92.49 -215.53,164.67 -357.97,216.45 -142.44,51.79 -369.05,77.74 -679.83,77.74l0 38.81c188.66,40.71 346.83,79.58 474.52,117.47 127.63,37.03 243.26,90.65 346.83,160.99 103.64,71.19 197.05,175.74 280.3,314.45 83.25,139.69 150.77,292.36 202.55,456.95 51.79,165.58 98.06,282.13 138.77,351.55 40.71,68.44 98.07,102.66 172.07,102.66 96.17,0 160.01,-61.95 191.48,-185.91 31.4,-123.95 47.13,-265.48 47.13,-424.57l88.82 0c0,181.25 -11.08,325.59 -33.3,432.9 -22.22,107.3 -77.68,219.2 -166.5,335.75 -88.82,116.55 -215.53,210.88 -380.19,283.05 -164.67,72.17 -343.16,108.22 -535.56,108.22 -299.69,0 -539.28,-86 -718.7,-258.99 -179.47,-172.07 -290.45,-398.68 -332.99,-678.97 -42.61,-280.23 -76.83,-516.15 -102.72,-709.46 -40.71,-214.62 -94.33,-340.41 -160.93,-375.54 -66.6,-35.14 -138.77,-54.61 -216.45,-58.28 -77.74,-3.73 -155.42,-5.57 -233.1,-5.57zm443.98 -116.55c140.61,-22.15 246.99,-123.96 319.17,-305.2 72.1,-181.32 108.22,-383.02 108.22,-604.97 0,-181.32 -37.04,-359.81 -111.04,-535.62 -74.01,-175.74 -162.77,-278.39 -266.4,-308.02 -103.57,-29.57 -196.06,-46.22 -277.48,-49.95 -81.41,-3.67 -153.58,-7.34 -216.45,-11.08l0 1831.49 188.66 0c103.63,0 188.72,-5.51 255.32,-16.65zm5527.77 821.42c0,392.19 -148.93,718.7 -446.79,979.59 -297.8,260.83 -648.37,391.27 -1051.7,391.27 -425.49,0 -781.63,-130.44 -1068.35,-391.27 -286.78,-260.89 -430.14,-587.4 -430.14,-979.59 0,-392.19 145.19,-718.7 435.65,-979.59 290.45,-260.83 644.76,-391.28 1062.84,-391.28 410.68,0 763.14,129.53 1057.27,388.52 294.19,259 441.22,586.42 441.22,982.35zm-1104.46 -5.57c0,-51.79 -3.67,-155.36 -11.08,-310.78 -7.41,-155.42 -11.08,-247.91 -11.08,-277.48 0,-199.8 -30.55,-364.46 -91.57,-493.99 -61.1,-129.46 -156.34,-194.22 -285.87,-194.22 -118.39,0 -209.04,67.51 -271.91,202.55 -62.93,135.03 -94.39,296.94 -94.39,485.66 0,70.27 -2.75,156.28 -8.32,258.08 -5.51,101.73 -10.17,211.79 -13.84,330.18 0,51.78 3.67,158.17 11.08,319.16 7.41,160.93 11.08,254.34 11.08,280.23 0,199.8 30.55,364.47 91.57,494 61.1,129.46 154.51,194.22 280.3,194.22 122.12,0 214.61,-66.6 277.48,-199.8 62.93,-133.2 94.39,-296.02 94.39,-488.42 0,-74 1.84,-161.84 5.51,-263.58 3.73,-101.8 9.3,-213.69 16.65,-335.81zm3385.5 -505.01l-5.57 -227.59c0,-288.55 -100.82,-432.9 -302.45,-432.9 -128.55,0 -220.12,40.71 -272.89,122.12 -53.62,81.42 -96.16,164.67 -129.46,249.75l0 1420.82 5.5 255.25c0,151.75 13.9,247.92 41.63,288.62 26.87,40.71 109.21,61.03 245.16,61.03l0 88.82 -1729.76 0 0 -88.82 133.2 -5.5c107.31,-11.15 172.07,-37.04 194.23,-77.75 22.22,-40.7 33.3,-129.46 33.3,-266.4l5.57 -255.25 0 -1326.49 -5.57 -227.53c-7.41,-88.82 -18.49,-155.42 -33.3,-199.8 -14.75,-44.37 -81.35,-72.17 -199.8,-83.25l-127.63 -11.07 0 -88.82 1415.25 0 0 416.24c40.7,-103.63 113.79,-208.12 219.2,-313.59 105.47,-105.41 309.92,-158.18 613.29,-158.18 262.73,0 490.26,74.01 682.65,222.02 192.39,148.02 288.62,321.92 288.62,521.72l0 1248.75 5.57 255.25c0,133.2 11.08,221.11 33.3,263.65 22.16,42.54 86.92,69.35 194.23,80.5l122.12 5.5 0 88.82 -1718.68 0 0 -88.82c132.28,0 213.7,-21.24 242.34,-63.78 29.63,-42.54 44.38,-137.85 44.38,-285.87l5.57 -255.25 0 -1132.2zm4370.67 1553.95c87.84,0 148.93,-54.54 184.07,-164.6 34.22,-109.2 51.79,-240.5 51.79,-393.17l77.74 0c0,326.57 -58.28,542.04 -174.83,645.68 -116.54,104.48 -221.1,170.17 -313.59,197.96 -92.49,27.73 -210.94,41.62 -355.22,41.62 -159.09,0 -300.62,-40.7 -424.57,-122.12 -123.96,-81.41 -198.89,-190.55 -224.78,-328.34 -59.19,150.77 -158.17,262.66 -296.94,337.59 -138.71,74.92 -319.11,112.87 -541.13,112.87 -236.77,0 -429.16,-64.76 -577.17,-194.29 -148.02,-130.38 -222.02,-309.86 -222.02,-540.2 0,-184.99 46.28,-333.92 138.77,-447.65 92.49,-112.88 186.82,-182.23 283.05,-208.12 96.23,-25.96 244.17,-48.12 443.97,-66.6 199.8,-18.55 346.9,-39.79 441.23,-63.85 94.39,-24.97 161.91,-50.87 202.61,-78.66 40.71,-27.73 61.03,-74.93 61.03,-141.53l-5.57 -505.92c0,-144.34 -18.48,-248.83 -54.54,-311.76 -37.03,-62.86 -113.79,-94.32 -231.26,-94.32 -73.09,0 -134.12,16.65 -184.07,49.94 -49.03,33.3 -74.01,76.77 -74.01,128.55 0,40.71 39.79,91.57 118.39,153.59 78.66,61.02 118.45,152.6 118.45,275.64 0,115.63 -50.93,217.36 -153.59,307.1 -101.73,88.76 -268.23,133.2 -497.66,133.2 -126.71,0 -236.77,-34.21 -332.08,-102.72 -94.33,-68.43 -141.52,-160.92 -141.52,-275.64 0,-230.28 128.61,-414.34 386.68,-552.2 258.08,-137.85 564.26,-206.29 920.34,-206.29 300.68,0 577.24,62.01 828.82,186.89 252.5,124.87 378.36,316.35 378.36,577.17l0 1276.48c0,119.37 11.08,210.02 33.3,273.8 17.57,66.6 63.78,99.9 135.95,99.9zm-1245.99 -166.5l0 -1060.02 -16.65 -5.57c-32.38,44.44 -94.33,86.07 -184.06,124.87 -89.74,38.87 -151.69,76.76 -185.91,113.8 -35.2,36.97 -62.93,108.22 -82.33,213.69 -20.39,105.41 -30.55,213.64 -30.55,324.68 0,166.5 12.98,299.7 38.88,399.6 24.97,99.9 84.16,149.85 174.82,149.85 70.27,0 131.36,-27.8 184.07,-83.25 53.62,-55.53 86.92,-114.72 101.73,-177.65zm3341.13 438.47l-1805.6 0 0 -88.82 134.12 -5.5c107.31,-11.15 172.99,-37.04 195.21,-77.75 22.16,-40.7 33.3,-129.46 33.3,-266.4l5.51 -255.25 0 -2741.73 -5.51 -227.53c-7.41,-88.82 -18.55,-155.42 -33.3,-199.8 -14.82,-44.44 -81.42,-72.17 -199.8,-83.25l-188.72 -11.14 0 -88.76 1498.49 0 0 3352.21 5.57 255.25c0,133.2 11.08,221.11 33.3,263.65 22.16,42.54 86.92,69.35 194.23,80.5l133.2 5.5 0 88.82zm1986.91 -2247.74c-14.81,-92.49 -55.52,-162.82 -122.12,-210.87 -66.6,-48.12 -144.28,-72.18 -233.1,-72.18 -114.65,0 -200.71,54.54 -258.07,163.75 -57.29,109.14 -94.33,233.1 -110.98,371.81 -16.65,138.77 -26.81,264.56 -30.55,377.44 -3.67,112.81 -5.5,217.36 -5.5,313.53l0 249.75c0,70.33 8.32,192.39 24.97,366.29 16.65,173.91 53.62,316.35 110.98,427.4 57.36,110.97 145.26,166.5 263.65,166.5 203.47,0 321.85,-98.07 355.15,-294.2 7.41,-85.08 12.98,-235.85 16.65,-452.3 3.74,-216.45 5.57,-378.36 5.57,-485.6l0 -510.64c0,-155.36 -5.57,-292.29 -16.65,-410.68zm16.65 -399.59l0 -710.45 -11.07 -255.25c0,-122.12 -18.49,-203.54 -54.61,-244.24 -36.97,-40.64 -115.63,-68.44 -236.77,-83.25l-258.07 -16.65 0 -88.76 1631.69 0 0 3435.46 5.57 227.53c0,99.89 17.57,169.25 52.7,208.12 35.14,38.87 102.66,63.85 202.56,74.92l177.64 11.08 0 88.82 -1498.56 0 0 -277.47c-40.64,74 -106.32,147.94 -196.98,221.95 -90.66,74.01 -261.81,111.04 -513.39,111.04 -355.22,0 -643.78,-123.95 -865.8,-371.87 -222.02,-247.91 -333,-584.58 -333,-1010.07 0,-410.74 110.98,-740 333,-987.92 222.02,-247.91 510.58,-371.87 865.8,-371.87 258.99,0 431.06,35.14 516.14,105.48 85.09,70.27 148.02,144.27 188.73,222.02l-5.58 -288.62z"/>
 </g>
</svg>
